<?xml version="1.0" encoding="windows-1252"?>
<!DOCTYPE svg PUBLIC "-//W3C//DTD SVG 1.1//EN" "http://www.w3.org/Graphics/SVG/1.1/DTD/svg11.dtd">
<svg version="1.1" id="Capa_1" xmlns="http://www.w3.org/2000/svg" xmlns:xlink="http://www.w3.org/1999/xlink" x="0px" y="0px" width="55px" height="55px" viewBox="0 0 300 1000" style="enable-background:new 0 0 300 1000;" xml:space="preserve">
<g>
	<g id="three_window_dots">
		<g>
			<path style="fill:#650D1B" d="M55.636,250.364C24.907,250.364,0,275.27,0,306c0,30.73,24.907,55.636,55.636,55.636S111.273,336.73,111.273,306     C111.273,275.27,86.366,250.364,55.636,250.364z"/>
            <path style="fill:#FFF275" d="M315.273,250.364c-30.73,0-55.636,24.907-55.636,55.636     c0,30.729,24.907,55.636,55.636,55.636c30.729,0,55.636-24.905,55.636-55.636C370.909,275.27,346.003,250.364,315.273,250.364z"/>
			<path style="fill:#94C9A9" d="M556.364,250.364c-30.73,0-55.636,24.907-55.636,55.636c0,30.729,24.906,55.636,55.636,55.636     C587.093,361.636,612,336.73,612,306C612,275.27,587.093,250.364,556.364,250.364z"/>
		</g>
	</g>
</g>
</svg>